<?xml version="1.0" encoding="UTF-8" standalone="no"?>
<!-- Created with Inkscape (http://www.inkscape.org/) -->

<svg
   width="512"
   height="512"
   viewBox="0 0 512 512"
   version="1.1"
   id="svg5"
   xmlns="http://www.w3.org/2000/svg"
   xmlns:svg="http://www.w3.org/2000/svg">
  <defs
     id="defs2" />
  <g
     id="layer1"
     style="display:inline">
    <g
       style="clip-rule:evenodd;fill-rule:evenodd;image-rendering:optimizeQuality;shape-rendering:geometricPrecision;text-rendering:geometricPrecision"
       id="g33"
       transform="matrix(0.52496733,0,0,0.52496733,-5.5442492,-6.3816629)">
      <g
         id="g11">
        <path
           style="opacity:0.995"
           fill="#000000"
           d="m 121.5,20.5 c 252,-0.1667 504,0 756,0.5 56.624,10.9575 90.124,44.7908 100.5,101.5 0.667,251.333 0.667,502.667 0,754 -10.376,56.709 -43.876,90.543 -100.5,101.5 -252,0.667 -504,0.667 -756,0 C 64.8758,967.043 31.3758,933.209 21,876.5 20.3333,625.167 20.3333,373.833 21,122.5 31.5561,65.7779 65.0561,31.7779 121.5,20.5 Z m 15,40 c 242,-0.1667 484,0 726,0.5 33.681,2.0838 57.181,18.5838 70.5,49.5 3.079,8.393 4.745,17.06 5,26 0.667,242 0.667,484 0,726 -2.084,33.681 -18.584,57.181 -49.5,70.5 -8.393,3.079 -17.06,4.745 -26,5 -242,0.667 -484,0.667 -726,0 -33.681,-2.084 -57.1811,-18.584 -70.5,-49.5 -3.0786,-8.393 -4.7452,-17.06 -5,-26 -0.6667,-242 -0.6667,-484 0,-726 2.8881,-38.2211 22.7214,-62.7211 59.5,-73.5 5.472,-0.8671 10.806,-1.7004 16,-2.5 z"
           id="path9" />
      </g>
      <g
         id="g15">
        <path
           style="opacity:0.988"
           fill="#000000"
           d="m 507.5,203.5 c 11.45,-1.536 22.116,0.63 32,6.5 72.814,62.237 145.814,124.237 219,186 59.216,55.618 85.382,124.118 78.5,205.5 -12.811,91.512 -60.977,156.679 -144.5,195.5 -85.859,32.645 -165.526,21.645 -239,-33 -52.589,-43.335 -81.923,-99.168 -88,-167.5 0.733,-7.695 1.233,-15.362 1.5,-23 -43.833,39.833 -87.667,79.667 -131.5,119.5 -14.58,13.415 -31.58,18.081 -51,14 -17.814,-7.004 -26.814,-20.171 -27,-39.5 0.946,-15.01 6.113,-28.344 15.5,-40 83.539,-71.875 167.373,-143.375 251.5,-214.5 -47,-0.333 -94,-0.667 -141,-1 -22.589,-5.024 -31.755,-18.857 -27.5,-41.5 7.369,-19.109 21.202,-30.276 41.5,-33.5 91.667,-0.333 183.333,-0.667 275,-1 -26,-23.333 -52,-46.667 -78,-70 -6.242,-5.571 -11.742,-11.738 -16.5,-18.5 -4.64,-16.742 0.527,-29.575 15.5,-38.5 4.659,-2.158 9.325,-3.991 14,-5.5 z m 79,209 c -47.645,6.478 -84.145,30.145 -109.5,71 -24.804,46.496 -25.804,93.496 -3,141 24.619,43.414 61.785,68.58 111.5,75.5 68.21,3.827 117.377,-24.673 147.5,-85.5 17.628,-45.262 14.961,-89.262 -8,-132 -32.472,-49.879 -78.639,-73.212 -138.5,-70 z"
           id="path13" />
      </g>
      <g
         id="g19">
        <path
           style="opacity:0.983"
           fill="#000000"
           d="m 593.5,459.5 c 45.904,-2.058 78.238,17.776 97,59.5 14.274,48.186 0.607,86.186 -41,114 -42.815,20.266 -80.982,13.766 -114.5,-19.5 -23.593,-29.228 -28.927,-61.561 -16,-97 14.654,-32.4 39.487,-51.4 74.5,-57 z"
           id="path17" />
      </g>
    </g>
  </g>
  <g
     id="layer5"
     style="display:none">
    <g
       style="clip-rule:evenodd;fill-rule:evenodd;image-rendering:optimizeQuality;shape-rendering:geometricPrecision;text-rendering:geometricPrecision"
       id="g65"
       transform="matrix(0.52496733,0,0,0.52496733,-5.5442432,-6.3816629)">
      <g
         id="g37">
        <path
           style="opacity:0.995"
           fill="#000000"
           d="m 121.5,20.5 c 252,-0.1667 504,0 756,0.5 56.624,10.9575 90.124,44.7908 100.5,101.5 0.667,251.333 0.667,502.667 0,754 -10.376,56.709 -43.876,90.543 -100.5,101.5 -252,0.667 -504,0.667 -756,0 C 64.8758,967.043 31.3758,933.209 21,876.5 20.3333,625.167 20.3333,373.833 21,122.5 31.5561,65.7779 65.0561,31.7779 121.5,20.5 Z m 15,40 c 242,-0.1667 484,0 726,0.5 33.681,2.0838 57.181,18.5838 70.5,49.5 3.079,8.393 4.745,17.06 5,26 0.667,242 0.667,484 0,726 -2.084,33.681 -18.584,57.181 -49.5,70.5 -8.393,3.079 -17.06,4.745 -26,5 -242,0.667 -484,0.667 -726,0 -33.681,-2.084 -57.1811,-18.584 -70.5,-49.5 -3.0786,-8.393 -4.7452,-17.06 -5,-26 -0.6667,-242 -0.6667,-484 0,-726 2.8881,-38.2211 22.7214,-62.7211 59.5,-73.5 5.472,-0.8671 10.806,-1.7004 16,-2.5 z"
           id="path35" />
      </g>
      <g
         id="g41">
        <path
           style="opacity:0.977"
           fill="#000000"
           d="m 682.5,230.5 c 36.585,-2.088 55.918,15.245 58,52 -3.352,36.863 -23.352,53.363 -60,49.5 -18.881,-5.589 -30.048,-18.089 -33.5,-37.5 -3.494,-18.884 0.506,-35.884 12,-51 6.667,-6.58 14.5,-10.914 23.5,-13 z"
           id="path39" />
      </g>
      <g
         id="g45">
        <path
           style="opacity:0.988"
           fill="#000000"
           d="m 330.5,249.5 c 39.333,0 78.667,0 118,0 40.206,149.949 80.206,299.949 120,450 -32,0 -64,0 -96,0 -9.823,-38.291 -19.489,-76.624 -29,-115 -37.002,-0.167 -74.002,0 -111,0.5 -9.406,37.79 -18.739,75.623 -28,113.5 -30.659,1 -61.326,1.333 -92,1 39.333,-150 78.667,-300 118,-450 z m 55,77 c -3.842,21.711 -8.009,43.378 -12.5,65 -9.171,38.682 -18.337,77.349 -27.5,116 28,0 56,0 84,0 -15.481,-60.255 -30.148,-120.588 -44,-181 z"
           id="path43" />
      </g>
      <g
         id="g49">
        <path
           style="opacity:1"
           fill="#000000"
           d="m 648.5,372.5 c 29.333,0 58.667,0 88,0 0,109 0,218 0,327 -29.333,0 -58.667,0 -88,0 0,-109 0,-218 0,-327 z"
           id="path47" />
      </g>
    </g>
  </g>
  <g
     id="layer4"
     style="display:none">
    <g
       style="clip-rule:evenodd;fill-rule:evenodd;image-rendering:optimizeQuality;shape-rendering:geometricPrecision;text-rendering:geometricPrecision"
       id="g85"
       transform="matrix(0.52496733,0,0,0.52496733,-5.5442432,-6.3816629)">
      <g
         id="g69">
        <path
           style="opacity:0.995"
           fill="#000000"
           d="m 121.5,20.5 c 252,-0.1667 504,0 756,0.5 56.624,10.9575 90.124,44.7908 100.5,101.5 0.667,251.333 0.667,502.667 0,754 -10.376,56.709 -43.876,90.543 -100.5,101.5 -252,0.667 -504,0.667 -756,0 C 64.8758,967.043 31.3758,933.209 21,876.5 20.3333,625.167 20.3333,373.833 21,122.5 31.5561,65.7779 65.0561,31.7779 121.5,20.5 Z m 15,40 c 242,-0.1667 484,0 726,0.5 33.681,2.0838 57.181,18.5838 70.5,49.5 3.079,8.393 4.745,17.06 5,26 0.667,242 0.667,484 0,726 -2.084,33.681 -18.584,57.181 -49.5,70.5 -8.393,3.079 -17.06,4.745 -26,5 -242,0.667 -484,0.667 -726,0 -33.681,-2.084 -57.1811,-18.584 -70.5,-49.5 -3.0786,-8.393 -4.7452,-17.06 -5,-26 -0.6667,-242 -0.6667,-484 0,-726 2.8881,-38.2211 22.7214,-62.7211 59.5,-73.5 5.472,-0.8671 10.806,-1.7004 16,-2.5 z"
           id="path67" />
      </g>
      <g
         id="g73">
        <path
           style="opacity:0.967"
           fill="#000000"
           d="m 314.5,166.5 c 4.105,-0.266 8.105,0.234 12,1.5 42,24.333 84,48.667 126,73 2.117,1.731 3.617,3.898 4.5,6.5 1.156,85.625 1.99,171.292 2.5,257 29.163,-16.414 58.163,-33.081 87,-50 0.833,-44.663 1.333,-89.33 1.5,-134 1.986,-6.657 6.152,-11.49 12.5,-14.5 37.83,-21.414 75.497,-43.081 113,-65 4.228,-2.532 8.728,-4.365 13.5,-5.5 4.522,0.511 8.689,2.011 12.5,4.5 39.333,22.667 78.667,45.333 118,68 4.317,2.315 7.15,5.815 8.5,10.5 0.986,51.058 0.653,102.058 -1,153 -2.425,3.634 -5.592,6.468 -9.5,8.5 -36.915,21.04 -73.748,42.207 -110.5,63.5 -0.333,44.333 -0.667,88.667 -1,133 -0.829,6.16 -3.996,10.66 -9.5,13.5 -82.667,47.333 -165.333,94.667 -248,142 -6.604,1.406 -12.604,0.072 -18,-4 C 346.421,780.879 264.588,733.379 183,685.5 c -2.11,-2.992 -3.443,-6.325 -4,-10 -0.994,-142.376 -0.66,-284.709 1,-427 1.71,-3.719 4.21,-6.886 7.5,-9.5 42.428,-24.208 84.761,-48.374 127,-72.5 z m 3,36 c -29.424,16.904 -58.757,34.071 -88,51.5 29.163,16.414 58.163,33.081 87,50 1.333,0.667 2.667,0.667 4,0 29.163,-16.414 58.163,-33.081 87,-50 -29.61,-17.968 -59.61,-35.134 -90,-51.5 z m 369,69 c -29.106,17.392 -58.439,34.559 -88,51.5 29.34,17.672 59.006,34.838 89,51.5 29.994,-16.662 59.66,-33.828 89,-51.5 -29.888,-17.394 -59.888,-34.561 -90,-51.5 z m -474,11 c -0.333,127.668 0,255.335 1,383 70.085,40.46 140.252,80.793 210.5,121 0.833,-34.338 0.667,-68.672 -0.5,-103 -37.667,-21.167 -75.333,-42.333 -113,-63.5 -3.29,-2.614 -5.79,-5.781 -7.5,-9.5 -1.154,-92.3 -1.988,-184.633 -2.5,-277 -29.361,-17.012 -58.694,-34.012 -88,-51 z m 210,1 c -28.276,17.145 -56.943,33.812 -86,50 -1.167,80.665 -1.333,161.331 -0.5,242 29.497,-16.747 58.83,-33.747 88,-51 0.167,-40.167 0.333,-80.333 0.5,-120.5 0,-40.506 -0.667,-80.672 -2,-120.5 z m 159,69 c -0.333,34.007 0,68.007 1,102 29,16.667 58,33.333 87,50 1.167,-33.662 1.333,-67.328 0.5,-101 -29.609,-16.885 -59.109,-33.885 -88.5,-51 z m 211,0 c -29.186,16.847 -58.352,33.847 -87.5,51 -0.833,33.672 -0.667,67.338 0.5,101 29,-16.667 58,-33.333 87,-50 1.33,-34.164 1.33,-68.164 0,-102 z m -230,131 c -69.774,40.726 -139.774,81.226 -210,121.5 29.667,16.833 59.333,33.667 89,50.5 70.83,-40.247 141.496,-80.747 212,-121.5 -27.83,-15.747 -55.497,-31.747 -83,-48 -2.409,-1.707 -5.075,-2.54 -8,-2.5 z m 106,80 c -69.441,40.226 -139.108,80.226 -209,120 -1.333,34.333 -1.333,68.667 0,103 70,-40.333 140,-80.667 210,-121 0.333,-17 0.667,-34 1,-51 0,-17.347 -0.667,-34.347 -2,-51 z"
           id="path71" />
      </g>
    </g>
  </g>
  <g
     id="layer3"
     style="display:none">
    <g
       style="clip-rule:evenodd;fill-rule:evenodd;image-rendering:optimizeQuality;shape-rendering:geometricPrecision;text-rendering:geometricPrecision"
       id="g111"
       transform="matrix(0.52496733,0,0,0.52496733,-5.5442432,-6.3816629)">
      <g
         id="g89">
        <path
           style="opacity:0.995"
           fill="#000000"
           d="m 121.5,20.5 c 252,-0.1667 504,0 756,0.5 56.624,10.9575 90.124,44.7908 100.5,101.5 0.667,251.333 0.667,502.667 0,754 -10.376,56.709 -43.876,90.543 -100.5,101.5 -252,0.667 -504,0.667 -756,0 C 64.8758,967.043 31.3758,933.209 21,876.5 20.3333,625.167 20.3333,373.833 21,122.5 31.5561,65.7779 65.0561,31.7779 121.5,20.5 Z m 15,40 c 242,-0.1667 484,0 726,0.5 33.681,2.0838 57.181,18.5838 70.5,49.5 3.079,8.393 4.745,17.06 5,26 0.667,242 0.667,484 0,726 -2.084,33.681 -18.584,57.181 -49.5,70.5 -8.393,3.079 -17.06,4.745 -26,5 -242,0.667 -484,0.667 -726,0 -33.681,-2.084 -57.1811,-18.584 -70.5,-49.5 -3.0786,-8.393 -4.7452,-17.06 -5,-26 -0.6667,-242 -0.6667,-484 0,-726 2.8881,-38.2211 22.7214,-62.7211 59.5,-73.5 5.472,-0.8671 10.806,-1.7004 16,-2.5 z"
           id="path87" />
      </g>
      <g
         id="g93">
        <path
           style="opacity:0.991"
           fill="#000000"
           d="m 297.5,246.5 c 22.669,-0.167 45.336,0 68,0.5 29.559,1.299 56.892,9.633 82,25 32.91,25.643 50.743,59.476 53.5,101.5 2.918,37.084 -4.749,71.751 -23,104 -20.227,28.555 -47.393,47.388 -81.5,56.5 -29.022,6.422 -58.355,8.255 -88,5.5 0,53.333 0,106.667 0,160 -29.333,0 -58.667,0 -88,0 -0.333,-148.002 0,-296.002 1,-444 25.262,-4.724 50.596,-7.724 76,-9 z m 38,77 c -8.945,0.766 -17.945,2.099 -27,4 0,44 0,88 0,132 13.932,1.928 27.932,2.428 42,1.5 32.025,-4.036 52.192,-21.536 60.5,-52.5 7.578,-57.261 -17.589,-85.595 -75.5,-85 z"
           id="path91" />
      </g>
      <g
         id="g97">
        <path
           style="opacity:0.984"
           fill="#000000"
           d="m 680.5,364.5 c 22.259,0.377 43.926,4.21 65,11.5 5.365,2.099 10.532,4.599 15.5,7.5 0.33,3.366 -0.003,6.699 -1,10 -4.694,20.305 -9.194,40.638 -13.5,61 -13.867,-7.425 -28.534,-12.925 -44,-16.5 -8.959,-1.431 -17.959,-1.765 -27,-1 -18.87,3.582 -26.37,14.749 -22.5,33.5 4.29,7.744 10.457,13.577 18.5,17.5 13.549,6.275 27.216,12.275 41,18 46.679,22.511 66.846,59.677 60.5,111.5 -8.099,47.101 -35.599,75.601 -82.5,85.5 -36.267,6.536 -71.934,4.202 -107,-7 -8.31,-2.905 -16.143,-6.738 -23.5,-11.5 -0.667,-2 -0.667,-4 0,-6 4.727,-22.81 9.894,-45.476 15.5,-68 23.039,14.624 48.205,22.957 75.5,25 10.751,0.189 20.584,-2.644 29.5,-8.5 6.591,-7.658 8.757,-16.491 6.5,-26.5 -1.267,-4.369 -3.433,-8.203 -6.5,-11.5 -3.333,-2.333 -6.667,-4.667 -10,-7 -12.086,-5.917 -24.42,-11.251 -37,-16 -59.861,-27.9 -79.694,-73.4 -59.5,-136.5 16.484,-35.125 43.984,-55.958 82.5,-62.5 8.144,-0.894 16.144,-1.727 24,-2.5 z"
           id="path95" />
      </g>
    </g>
  </g>
  <g
     id="layer2"
     style="display:none">
    <g
       style="clip-rule:evenodd;fill-rule:evenodd;image-rendering:optimizeQuality;shape-rendering:geometricPrecision;text-rendering:geometricPrecision"
       id="g137"
       transform="matrix(0.52496733,0,0,0.52496733,-5.5442432,-6.3816629)">
      <g
         id="g115">
        <path
           style="opacity:0.995"
           fill="#000000"
           d="m 121.5,20.5 c 252,-0.1667 504,0 756,0.5 56.624,10.9575 90.124,44.7908 100.5,101.5 0.667,251.333 0.667,502.667 0,754 -10.376,56.709 -43.876,90.543 -100.5,101.5 -252,0.667 -504,0.667 -756,0 C 64.8758,967.043 31.3758,933.209 21,876.5 20.3333,625.167 20.3333,373.833 21,122.5 31.5561,65.7779 65.0561,31.7779 121.5,20.5 Z m 15,40 c 242,-0.1667 484,0 726,0.5 33.681,2.0838 57.181,18.5838 70.5,49.5 3.079,8.393 4.745,17.06 5,26 0.667,242 0.667,484 0,726 -2.084,33.681 -18.584,57.181 -49.5,70.5 -8.393,3.079 -17.06,4.745 -26,5 -242,0.667 -484,0.667 -726,0 -33.681,-2.084 -57.1811,-18.584 -70.5,-49.5 -3.0786,-8.393 -4.7452,-17.06 -5,-26 -0.6667,-242 -0.6667,-484 0,-726 2.8881,-38.2211 22.7214,-62.7211 59.5,-73.5 5.472,-0.8671 10.806,-1.7004 16,-2.5 z"
           id="path113" />
      </g>
      <g
         id="g119">
        <path
           style="opacity:0.97"
           fill="#000000"
           d="m 345.5,186.5 c 20.891,-0.855 40.891,2.978 60,11.5 35.04,16.384 66.206,38.217 93.5,65.5 27.643,-27.642 59.143,-49.809 94.5,-66.5 67.389,-26.895 107.223,-4.729 119.5,66.5 2.765,19.628 3.098,39.294 1,59 -1.978,20.203 -5.145,40.203 -9.5,60 40.244,10.291 76.91,27.791 110,52.5 49.305,42.925 49.305,85.925 0,129 -24.925,19.134 -52.258,34.134 -82,45 -9.123,2.874 -18.123,6.041 -27,9.5 11.195,41.361 13.528,83.195 7,125.5 -3.609,18.378 -11.109,34.878 -22.5,49.5 -16.488,16.273 -36.322,22.773 -59.5,19.5 -26.04,-4.689 -50.04,-14.356 -72,-29 -20.633,-13.791 -39.966,-29.291 -58,-46.5 -22.215,21.054 -46.548,39.221 -73,54.5 -22.216,12.628 -46.049,19.795 -71.5,21.5 -30.578,-0.906 -51.578,-15.573 -63,-44 -10.37,-30.919 -13.37,-62.585 -9,-95 1.945,-18.51 5.445,-36.677 10.5,-54.5 -39.058,-10.697 -74.725,-28.031 -107,-52 -54.251,-45.045 -54.584,-90.378 -1,-136 16.517,-12.099 34.184,-22.433 53,-31 18.107,-7.535 36.441,-14.368 55,-20.5 -9.137,-33.734 -12.97,-68.068 -11.5,-103 0.936,-20.413 5.936,-39.747 15,-58 10.645,-18.565 26.479,-29.565 47.5,-33 z m 4,31 c -9.563,1.205 -17.063,5.872 -22.5,14 -5.46,10.048 -9.127,20.714 -11,32 -4.157,36.473 -1.49,72.473 8,108 0.519,1.016 1.353,1.682 2.5,2 30.424,-6.515 61.09,-11.515 92,-15 17.871,-25.543 37.537,-49.709 59,-72.5 -20.06,-20.069 -42.393,-37.069 -67,-51 -18.814,-11.217 -39.147,-17.05 -61,-17.5 z m 282,0 c -8.075,1.859 -16.075,4.359 -24,7.5 -32.349,15.001 -61.016,35.168 -86,60.5 20.855,23.181 40.189,47.515 58,73 31.86,3.81 63.527,8.81 95,15 3.806,-18.504 6.639,-37.17 8.5,-56 0.667,-13.667 0.667,-27.333 0,-41 -1.169,-14.675 -4.835,-28.675 -11,-42 -9.261,-15.217 -22.761,-20.884 -40.5,-17 z m -133,91 c -13.682,15.524 -27.015,31.358 -40,47.5 27,-0.667 54,-0.667 81,0 -12.246,-16.25 -25.246,-31.917 -39,-47 -0.594,-0.464 -1.261,-0.631 -2,-0.5 z m -17,78 c -14.506,0.879 -29.172,1.712 -44,2.5 -1.266,0.309 -2.433,0.809 -3.5,1.5 -23.194,34.369 -43.861,70.369 -62,108 -0.667,1 -0.667,2 0,3 18.238,37.681 39.071,73.681 62.5,108 8.897,1.639 17.897,2.473 27,2.5 34.043,1.068 68.043,0.401 102,-2 22.981,-34.779 43.815,-70.945 62.5,-108.5 0.667,-1.333 0.667,-2.667 0,-4 -18.435,-37.39 -39.268,-73.223 -62.5,-107.5 -6.253,-1.204 -12.586,-1.871 -19,-2 -20.99,-0.966 -41.99,-1.466 -63,-1.5 z m -93,7 c -18.616,3.021 -37.283,6.521 -56,10.5 6.709,20.128 14.209,39.961 22.5,59.5 11.636,-23.946 24.802,-46.946 39.5,-69 -1.896,-0.966 -3.896,-1.299 -6,-1 z m 215,0 c 13.562,22.781 26.896,45.781 40,69 8.219,-18.822 15.552,-37.989 22,-57.5 -20.3,-5.44 -40.966,-9.273 -62,-11.5 z m -302,18 c -30.802,8.66 -59.802,21.494 -87,38.5 -13.544,9.211 -24.711,20.711 -33.5,34.5 -4.199,8.853 -4.532,17.853 -1,27 5.551,11.562 13.385,21.395 23.5,29.5 29.487,22.243 62.154,38.41 98,48.5 10.479,-30.433 22.146,-60.433 35,-90 -12.883,-29.061 -24.549,-58.394 -35,-88 z m 394,1 c -9.371,29.746 -20.704,58.746 -34,87 13.901,28.466 25.568,57.799 35,88 21.849,-5.922 42.849,-14.089 63,-24.5 19.158,-9.824 35.992,-22.658 50.5,-38.5 6.231,-7.357 9.731,-15.857 10.5,-25.5 -2.498,-13.989 -9.164,-25.656 -20,-35 -31.204,-24.601 -66.204,-41.768 -105,-51.5 z m -52,123 c -12.267,24.374 -25.933,47.874 -41,70.5 21.44,-1.823 42.606,-5.323 63.5,-10.5 -6.019,-20.557 -13.519,-40.557 -22.5,-60 z m -289,1 c -7.917,19.746 -15.25,39.746 -22,60 20.665,4.805 41.499,8.472 62.5,11 -13.954,-23.222 -27.454,-46.889 -40.5,-71 z m 320,89 c -7.77,2.258 -15.77,4.091 -24,5.5 -23.636,3.912 -47.303,7.412 -71,10.5 -17.285,26.045 -36.618,50.545 -58,73.5 14.418,13.089 29.418,25.422 45,37 20.461,14.895 43.127,24.895 68,30 13.114,2.387 24.28,-1.113 33.5,-10.5 6.46,-9.036 10.793,-19.036 13,-30 6.712,-39.263 4.545,-77.93 -6.5,-116 z m -351,2 c -7.378,30.233 -10.544,60.899 -9.5,92 0.703,14.183 3.703,27.85 9,41 4.348,10.35 11.848,17.183 22.5,20.5 18.144,2.039 35.477,-0.961 52,-9 30.325,-14.332 57.325,-33.332 81,-57 -21.516,-23.508 -41.516,-48.174 -60,-74 -31.916,-2.869 -63.582,-7.369 -95,-13.5 z m 216,16 c -26.669,-0.167 -53.335,0 -80,0.5 12.747,16.751 26.247,32.918 40.5,48.5 14.518,-15.34 27.685,-31.673 39.5,-49 z"
           id="path117" />
      </g>
      <g
         id="g123">
        <path
           style="opacity:0.983"
           fill="#000000"
           d="m 492.5,435.5 c 38.276,0.041 61.443,18.707 69.5,56 1.744,28.684 -9.756,50.184 -34.5,64.5 -30.3,12.382 -56.467,6.548 -78.5,-17.5 -18.238,-26.877 -17.904,-53.544 1,-80 11.472,-12.817 25.639,-20.483 42.5,-23 z"
           id="path121" />
      </g>
    </g>
  </g>
</svg>
